solid OpenSCAD_Model
  facet normal -1 0 0
    outer loop
      vertex 0 16.5625 1
      vertex 0 12.8438 6.25
      vertex 0 16.5625 12.5
    endloop
  endfacet
  facet normal -1 0 0
    outer loop
      vertex 0 16.5625 1
      vertex 0 5.28125 6.25
      vertex 0 12.8438 6.25
    endloop
  endfacet
  facet normal -1 0 0
    outer loop
      vertex 0 1.5625 1
      vertex 0 5.28125 6.25
      vertex 0 16.5625 1
    endloop
  endfacet
  facet normal -1 0 0
    outer loop
      vertex 0 1.5625 12.5
      vertex 0 5.28125 6.25
      vertex 0 1.5625 1
    endloop
  endfacet
  facet normal -1 0 0
    outer loop
      vertex 0 5.28125 6.25
      vertex 0 1.5625 12.5
      vertex 0 5.28125 12.5
    endloop
  endfacet
  facet normal -1 -0 0
    outer loop
      vertex 0 16.5625 12.5
      vertex 0 12.8438 6.25
      vertex 0 12.8438 12.5
    endloop
  endfacet
  facet normal -0 0 1
    outer loop
      vertex 0 12.8438 6.25
      vertex 4.375 5.28125 6.25
      vertex 4.375 12.8438 6.25
    endloop
  endfacet
  facet normal 0 0 1
    outer loop
      vertex 4.375 5.28125 6.25
      vertex 0 12.8438 6.25
      vertex 0 5.28125 6.25
    endloop
  endfacet
  facet normal 1 0 0
    outer loop
      vertex 4.375 5.28125 12.5
      vertex 4.375 1.5625 12.5
      vertex 4.375 5.28125 6.25
    endloop
  endfacet
  facet normal 1 0 0
    outer loop
      vertex 4.375 12.8438 6.25
      vertex 4.375 16.5625 12.5
      vertex 4.375 12.8438 12.5
    endloop
  endfacet
  facet normal 1 0 0
    outer loop
      vertex 4.375 16.5625 12.5
      vertex 4.375 12.8438 6.25
      vertex 4.375 16.5625 1
    endloop
  endfacet
  facet normal 1 -0 0
    outer loop
      vertex 4.375 5.28125 6.25
      vertex 4.375 16.5625 1
      vertex 4.375 12.8438 6.25
    endloop
  endfacet
  facet normal 1 0 0
    outer loop
      vertex 4.375 5.28125 6.25
      vertex 4.375 1.5625 1
      vertex 4.375 16.5625 1
    endloop
  endfacet
  facet normal 1 0 0
    outer loop
      vertex 4.375 1.5625 1
      vertex 4.375 5.28125 6.25
      vertex 4.375 1.5625 12.5
    endloop
  endfacet
  facet normal 0 0 -1
    outer loop
      vertex -5 1.5625 0
      vertex 9.375 16.5625 0
      vertex 9.375 1.5625 0
    endloop
  endfacet
  facet normal -0 0 -1
    outer loop
      vertex 9.375 16.5625 0
      vertex -5 1.5625 0
      vertex -5 16.5625 0
    endloop
  endfacet
  facet normal 0 -1 0
    outer loop
      vertex -5 1.5625 0
      vertex 0 1.5625 1
      vertex -5 1.5625 1
    endloop
  endfacet
  facet normal 0 -1 -0
    outer loop
      vertex 0 1.5625 1
      vertex -5 1.5625 0
      vertex 4.375 1.5625 1
    endloop
  endfacet
  facet normal 0 -1 0
    outer loop
      vertex 9.375 1.5625 0
      vertex 4.375 1.5625 1
      vertex -5 1.5625 0
    endloop
  endfacet
  facet normal 0 -1 0
    outer loop
      vertex 4.375 1.5625 1
      vertex 9.375 1.5625 0
      vertex 9.375 1.5625 1
    endloop
  endfacet
  facet normal 0 -1 0
    outer loop
      vertex 0 1.5625 1
      vertex 4.375 1.5625 12.5
      vertex 0 1.5625 12.5
    endloop
  endfacet
  facet normal 0 -1 -0
    outer loop
      vertex 4.375 1.5625 12.5
      vertex 0 1.5625 1
      vertex 4.375 1.5625 1
    endloop
  endfacet
  facet normal 0 1 -0
    outer loop
      vertex 9.375 16.5625 0
      vertex 4.375 16.5625 1
      vertex 9.375 16.5625 1
    endloop
  endfacet
  facet normal 0 1 0
    outer loop
      vertex 4.375 16.5625 1
      vertex 9.375 16.5625 0
      vertex 0 16.5625 1
    endloop
  endfacet
  facet normal 0 1 0
    outer loop
      vertex -5 16.5625 0
      vertex 0 16.5625 1
      vertex 9.375 16.5625 0
    endloop
  endfacet
  facet normal 0 1 0
    outer loop
      vertex 0 16.5625 1
      vertex -5 16.5625 0
      vertex -5 16.5625 1
    endloop
  endfacet
  facet normal 0 1 -0
    outer loop
      vertex 4.375 16.5625 1
      vertex 0 16.5625 12.5
      vertex 4.375 16.5625 12.5
    endloop
  endfacet
  facet normal 0 1 0
    outer loop
      vertex 0 16.5625 12.5
      vertex 4.375 16.5625 1
      vertex 0 16.5625 1
    endloop
  endfacet
  facet normal -0 0 1
    outer loop
      vertex 0 5.28125 12.5
      vertex 4.375 1.5625 12.5
      vertex 4.375 5.28125 12.5
    endloop
  endfacet
  facet normal 0 0 1
    outer loop
      vertex 4.375 1.5625 12.5
      vertex 0 5.28125 12.5
      vertex 0 1.5625 12.5
    endloop
  endfacet
  facet normal 0 1 -0
    outer loop
      vertex 4.375 5.28125 6.25
      vertex 0 5.28125 12.5
      vertex 4.375 5.28125 12.5
    endloop
  endfacet
  facet normal 0 1 0
    outer loop
      vertex 0 5.28125 12.5
      vertex 4.375 5.28125 6.25
      vertex 0 5.28125 6.25
    endloop
  endfacet
  facet normal -0 0 1
    outer loop
      vertex 0 16.5625 12.5
      vertex 4.375 12.8438 12.5
      vertex 4.375 16.5625 12.5
    endloop
  endfacet
  facet normal 0 0 1
    outer loop
      vertex 4.375 12.8438 12.5
      vertex 0 16.5625 12.5
      vertex 0 12.8438 12.5
    endloop
  endfacet
  facet normal 0 -1 0
    outer loop
      vertex 0 12.8438 6.25
      vertex 4.375 12.8438 12.5
      vertex 0 12.8438 12.5
    endloop
  endfacet
  facet normal 0 -1 -0
    outer loop
      vertex 4.375 12.8438 12.5
      vertex 0 12.8438 6.25
      vertex 4.375 12.8438 6.25
    endloop
  endfacet
  facet normal -1 0 0
    outer loop
      vertex -5 1.5625 0
      vertex -5 16.5625 1
      vertex -5 16.5625 0
    endloop
  endfacet
  facet normal -1 -0 0
    outer loop
      vertex -5 16.5625 1
      vertex -5 1.5625 0
      vertex -5 1.5625 1
    endloop
  endfacet
  facet normal -0 0 1
    outer loop
      vertex 4.375 16.5625 1
      vertex 9.375 1.5625 1
      vertex 9.375 16.5625 1
    endloop
  endfacet
  facet normal 0 0 1
    outer loop
      vertex 9.375 1.5625 1
      vertex 4.375 16.5625 1
      vertex 4.375 1.5625 1
    endloop
  endfacet
  facet normal -0 0 1
    outer loop
      vertex -5 16.5625 1
      vertex 0 1.5625 1
      vertex 0 16.5625 1
    endloop
  endfacet
  facet normal 0 0 1
    outer loop
      vertex 0 1.5625 1
      vertex -5 16.5625 1
      vertex -5 1.5625 1
    endloop
  endfacet
  facet normal 1 -0 0
    outer loop
      vertex 9.375 1.5625 1
      vertex 9.375 16.5625 0
      vertex 9.375 16.5625 1
    endloop
  endfacet
  facet normal 1 0 0
    outer loop
      vertex 9.375 16.5625 0
      vertex 9.375 1.5625 1
      vertex 9.375 1.5625 0
    endloop
  endfacet
endsolid OpenSCAD_Model
